<svg xmlns="http://www.w3.org/2000/svg" width="512" height="512" viewBox="0 0 512 512" version="1.1"><path d="M 312.455 236.455 L 310 238.909 310 275 L 310 311.091 312.455 313.545 L 314.909 316 391.294 316 L 467.679 316 468.839 313.453 C 470.310 310.226, 470.478 240.388, 469.025 236.565 L 468.050 234 391.479 234 L 314.909 234 312.455 236.455 M 310 395 L 310 401 325 401 L 340 401 340 395 L 340 389 325 389 L 310 389 310 395 M 378 395 L 378 401 393 401 L 408 401 408 395 L 408 389 393 389 L 378 389 378 395 M 447 395 L 447 401 461.500 401 L 476 401 476 395 L 476 389 461.500 389 L 447 389 447 395 M 310 437 L 310 443 325 443 L 340 443 340 437 L 340 431 325 431 L 310 431 310 437 M 378 437 L 378 443 393 443 L 408 443 408 437 L 408 431 393 431 L 378 431 378 437" stroke="none" fill="#f0f0ff" fill-rule="evenodd"/><path d="M 83 424.500 L 83 442 100 442 L 117 442 117 424.500 L 117 407 100 407 L 83 407 83 424.500 M 447 437 L 447 443 462 443 L 477 443 477 437 L 477 431 462 431 L 447 431 447 437" stroke="none" fill="#fdc72e" fill-rule="evenodd"/><path d="M 315.250 89.748 C 322.813 89.917, 335.188 89.917, 342.750 89.748 C 350.313 89.578, 344.125 89.439, 329 89.439 C 313.875 89.439, 307.688 89.578, 315.250 89.748 M 354.750 233.750 C 375.788 233.900, 410.213 233.900, 431.250 233.750 C 452.288 233.599, 435.075 233.476, 393 233.476 C 350.925 233.476, 333.713 233.599, 354.750 233.750 M 177.321 280.749 C 192.622 280.905, 217.372 280.905, 232.321 280.749 C 247.269 280.594, 234.750 280.467, 204.500 280.467 C 174.250 280.467, 162.019 280.594, 177.321 280.749 M 354.250 316.750 C 375.563 316.900, 410.438 316.900, 431.750 316.750 C 453.063 316.599, 435.625 316.476, 393 316.476 C 350.375 316.476, 332.938 316.599, 354.250 316.750 M 177.321 322.749 C 192.622 322.905, 217.372 322.905, 232.321 322.749 C 247.269 322.594, 234.750 322.467, 204.500 322.467 C 174.250 322.467, 162.019 322.594, 177.321 322.749 M 84.750 325.689 C 83.173 326.101, 83 327.770, 83 342.573 L 83 359 100 359 L 117 359 117 342 L 117 325 101.750 325.116 C 93.362 325.180, 85.713 325.438, 84.750 325.689 M 310 353.500 L 310 360 325 360 L 340 360 340 353.500 L 340 347 325 347 L 310 347 310 353.500 M 446.320 395 C 446.320 398.575, 446.502 400.038, 446.723 398.250 C 446.945 396.462, 446.945 393.538, 446.723 391.750 C 446.502 389.962, 446.320 391.425, 446.320 395 M 177.321 404.749 C 192.622 404.905, 217.372 404.905, 232.321 404.749 C 247.269 404.594, 234.750 404.467, 204.500 404.467 C 174.250 404.467, 162.019 404.594, 177.321 404.749" stroke="none" fill="#5caeff" fill-rule="evenodd"/><path d="M 82.226 260.250 L 82.500 277.500 99.750 277.774 L 117 278.047 117 260.524 L 117 243 99.476 243 L 81.953 243 82.226 260.250 M 378 353.500 L 378 360 393 360 L 408 360 408 353.500 L 408 347 393 347 L 378 347 378 353.500 M 82.411 425 C 82.411 434.625, 82.561 438.563, 82.745 433.750 C 82.928 428.938, 82.928 421.063, 82.745 416.250 C 82.561 411.438, 82.411 415.375, 82.411 425" stroke="none" fill="#fb545c" fill-rule="evenodd"/><path d="M 329 62.500 C 344.117 77.625, 356.711 90, 356.986 90 C 357.261 90, 345.117 77.625, 330 62.500 C 314.883 47.375, 302.289 35, 302.014 35 C 301.739 35, 313.883 47.375, 329 62.500 M 326.250 182.747 C 333.262 182.919, 344.738 182.919, 351.750 182.747 C 358.762 182.575, 353.025 182.435, 339 182.435 C 324.975 182.435, 319.238 182.575, 326.250 182.747 M 307 195.079 C 301.491 197.569, 296.536 202.184, 293.662 207.500 L 291.500 211.500 291.235 336.446 C 290.934 478.055, 290.341 467.436, 299.037 476.133 C 307.324 484.420, 303.098 484.085, 395.585 483.773 L 476.500 483.500 480.634 481.289 C 486.228 478.297, 490.896 473.446, 493.412 468.011 C 495.494 463.512, 495.500 463.159, 495.500 338 L 495.500 212.500 492.799 207.380 C 489.775 201.648, 485.452 197.581, 479.500 194.867 C 475.733 193.150, 470.724 193.044, 393.500 193.044 C 313.176 193.044, 311.408 193.086, 307 195.079 M 186.728 210.722 C 188.503 210.943, 191.653 210.946, 193.728 210.730 C 195.802 210.513, 194.350 210.333, 190.500 210.328 C 186.650 210.324, 184.952 210.501, 186.728 210.722 M 280.484 338 C 280.484 404.825, 280.604 432.162, 280.750 398.750 C 280.896 365.337, 280.896 310.662, 280.750 277.250 C 280.604 243.837, 280.484 271.175, 280.484 338 M 310.459 224.870 C 305.523 227.124, 301.424 231.811, 300.044 236.781 C 298.650 241.799, 298.664 308.251, 300.060 313.277 C 300.637 315.355, 302.456 318.588, 304.101 320.462 C 310.130 327.329, 306.657 327.088, 395.074 326.778 L 474.647 326.500 478.902 323.684 C 486.869 318.411, 486.956 317.884, 486.956 275 C 486.956 232.116, 486.869 231.589, 478.902 226.316 L 474.647 223.500 394.573 223.263 C 318.581 223.037, 314.294 223.119, 310.459 224.870 M 177.321 240.749 C 192.622 240.905, 217.372 240.905, 232.321 240.749 C 247.269 240.594, 234.750 240.467, 204.500 240.467 C 174.250 240.467, 162.019 240.594, 177.321 240.749 M 309.450 275 C 309.450 293.975, 309.584 301.738, 309.748 292.250 C 309.913 282.762, 309.913 267.238, 309.748 257.750 C 309.584 248.262, 309.450 256.025, 309.450 275 M 177.250 250.749 C 192.512 250.905, 217.487 250.905, 232.750 250.749 C 248.012 250.594, 235.525 250.467, 205 250.467 C 174.475 250.467, 161.987 250.594, 177.250 250.749 M 82 342.500 L 82 360 99.750 359.775 L 117.500 359.550 100.250 359.252 L 83 358.953 83 342.550 C 83 327.769, 83.173 326.101, 84.750 325.689 C 86.067 325.345, 85.943 325.203, 84.250 325.116 L 82 325 82 342.500 M 302.766 339.917 C 299.604 342.742, 299.489 343.120, 299.154 351.815 C 298.763 361.990, 300.336 366.921, 304.595 368.861 C 306.177 369.582, 313.897 370, 325.624 370 L 344.154 370 347.077 367.077 C 349.942 364.212, 350 363.942, 350 353.500 C 350 343.058, 349.942 342.788, 347.077 339.923 L 344.154 337 325.093 337 L 306.032 337 302.766 339.917 M 372.775 338.559 C 368.667 340.788, 368 342.947, 368 354.011 C 368 363.888, 368.077 364.230, 370.923 367.077 L 373.846 370 393.277 370 C 412.382 370, 412.751 369.960, 415.288 367.609 C 418.444 364.684, 419.337 360.351, 418.835 350.404 C 418.476 343.299, 418.235 342.599, 415.210 339.896 L 411.968 337 393.734 337.040 C 379.597 337.071, 374.888 337.412, 372.775 338.559 M 439.400 340.400 C 436.029 343.771, 436 343.877, 436 352.950 C 436 362.655, 437.357 367.050, 440.945 368.970 C 442.072 369.574, 450.794 370, 462.011 370 L 481.154 370 484.077 367.077 C 486.903 364.251, 487 363.834, 487 354.527 C 487 343.816, 485.763 340.124, 481.528 338.195 C 479.804 337.409, 472.720 337, 460.853 337 L 442.800 337 439.400 340.400 M 176.821 352.749 C 192.398 352.905, 217.598 352.904, 232.821 352.749 C 248.044 352.594, 235.300 352.467, 204.500 352.467 C 173.700 352.467, 161.244 352.594, 176.821 352.749 M 177.179 362.749 C 191.853 362.905, 216.153 362.905, 231.179 362.749 C 246.206 362.594, 234.200 362.466, 204.500 362.466 C 174.800 362.466, 162.506 362.593, 177.179 362.749 M 303.656 380.133 C 300.637 381.887, 299 387.373, 299.004 395.718 C 299.008 404.496, 301.075 409.317, 305.566 411.025 C 306.976 411.561, 315.773 412, 325.115 412 C 349.161 412, 350 411.432, 350 395.142 C 350 385.855, 349.818 384.937, 347.411 382.077 L 344.822 379 325.161 379.030 C 313.047 379.049, 304.792 379.472, 303.656 380.133 M 370.923 381.923 C 368.066 384.780, 368.001 385.079, 368.022 395.173 C 368.057 411.430, 368.934 412, 393.918 412 L 411.968 412 415.234 409.083 C 418.404 406.251, 418.510 405.897, 418.851 397.034 C 419.073 391.265, 418.746 386.802, 417.963 384.912 C 415.637 379.295, 414.399 379, 393.201 379 L 373.846 379 370.923 381.923 M 440.360 380.460 C 436.847 382.921, 435.769 387.163, 436.149 397.034 C 436.490 405.897, 436.596 406.251, 439.766 409.083 L 443.032 412 461.065 412 C 486.054 412, 487 411.357, 487 394.376 C 487 385.176, 486.899 384.745, 484.077 381.923 L 481.154 379 461.799 379 C 446.449 379, 442.014 379.302, 440.360 380.460 M 309.320 395 C 309.320 398.575, 309.502 400.038, 309.723 398.250 C 309.945 396.462, 309.945 393.538, 309.723 391.750 C 309.502 389.962, 309.320 391.425, 309.320 395 M 408.328 395.500 C 408.333 399.350, 408.513 400.802, 408.730 398.728 C 408.946 396.653, 408.943 393.503, 408.722 391.728 C 408.501 389.952, 408.324 391.650, 408.328 395.500 M 305 421.279 C 300.984 423.285, 299.003 428.479, 299.003 437 C 299.003 442.139, 299.553 445.602, 300.752 448 C 303.420 453.342, 307.310 454.199, 327.186 453.819 L 343.873 453.500 346.936 450.563 C 349.969 447.655, 350 447.521, 350 437.247 C 350 420.475, 349.296 419.994, 324.800 420.015 C 312.994 420.025, 306.706 420.426, 305 421.279 M 372.826 421.679 C 368.879 424.177, 368 427.065, 368 437.531 C 368 446.544, 368.131 447.115, 370.916 450.234 L 373.832 453.500 391.256 453.830 C 411.115 454.206, 414.706 453.403, 417.526 447.950 C 418.813 445.460, 419.108 442.652, 418.842 435.393 C 418.525 426.731, 418.296 425.838, 415.730 423.271 L 412.959 420.500 394.230 420.243 C 378.062 420.021, 375.134 420.218, 372.826 421.679 M 442.500 420.945 C 437.755 422.887, 436.518 425.722, 436.158 435.474 C 435.538 452.258, 437.922 454, 461.500 454 C 485.064 454, 487 452.685, 487 436.677 L 487 426.800 483.600 423.400 L 480.200 420 462.350 420.063 C 452.533 420.098, 443.600 420.495, 442.500 420.945 M 309.412 431.369 C 309.123 432.122, 309.024 435.160, 309.193 438.119 L 309.500 443.500 324.751 443.540 L 340.002 443.581 325.001 443.264 L 310 442.948 310 437 L 310 431.052 325.250 430.748 L 340.500 430.444 325.219 430.222 C 313.053 430.045, 309.830 430.279, 309.412 431.369 M 392.750 430.748 L 408 431.052 408 437 L 408 442.948 392.999 443.264 L 377.998 443.581 393.249 443.540 L 408.500 443.500 408.796 436.750 L 409.091 430 393.296 430.222 L 377.500 430.444 392.750 430.748 M 446.412 431.369 C 446.123 432.122, 446.054 435.160, 446.258 438.119 L 446.630 443.500 446.815 437.276 L 447 431.052 462.250 430.748 L 477.500 430.444 462.219 430.222 C 450.053 430.045, 446.830 430.279, 446.412 431.369 M 177.321 434.749 C 192.622 434.905, 217.372 434.905, 232.321 434.749 C 247.269 434.594, 234.750 434.467, 204.500 434.467 C 174.250 434.467, 162.019 434.594, 177.321 434.749 M 177.321 444.749 C 192.622 444.905, 217.372 444.905, 232.321 444.749 C 247.269 444.594, 234.750 444.467, 204.500 444.467 C 174.250 444.467, 162.019 444.594, 177.321 444.749" stroke="none" fill="#5d689e" fill-rule="evenodd"/><path d="M 25 256 L 25 484 157.993 484 L 290.987 484 287.600 479.564 C 285.738 477.124, 283.378 472.961, 282.357 470.314 C 280.583 465.714, 280.500 459.832, 280.500 338 L 280.500 210.500 282.797 205.500 C 288.053 194.057, 294.775 187.781, 305.727 184.092 C 311.397 182.182, 314.201 182, 337.968 182 L 364 182 364 141 L 364 100 329.200 100 C 303.467 100, 294.087 99.687, 293.200 98.800 C 292.313 97.913, 292 88.533, 292 62.800 L 292 28 158.500 28 L 25 28 25 256 M 179.561 55.102 C 160.598 57.644, 141.730 68.145, 129.429 83 C 123.192 90.532, 115.481 106.665, 113.555 116.208 C 111.629 125.752, 111.579 140.350, 113.442 149.138 C 117.743 169.433, 131.413 188.817, 148.927 199.455 C 188.415 223.444, 240.255 208.546, 260.009 167.533 C 266.018 155.058, 268 146.296, 268 132.213 C 268 113.976, 262.705 98.495, 251.622 84.331 C 234.901 62.961, 206.591 51.478, 179.561 55.102 M 73.200 234.200 C 71.493 235.907, 71.493 285.093, 73.200 286.800 C 74.070 287.670, 81.328 288, 99.578 288 C 121.778 288, 124.917 287.804, 126.128 286.346 C 128.130 283.934, 128.130 237.066, 126.128 234.654 C 124.917 233.196, 121.778 233, 99.578 233 C 81.328 233, 74.070 233.330, 73.200 234.200 M 469.077 236.790 C 470.272 240.218, 469.871 311.742, 468.643 314.250 C 467.405 316.779, 471.003 316.578, 473.811 313.961 C 475.986 311.935, 476 311.691, 476 275.135 L 476 238.349 473.686 236.174 C 472.413 234.978, 470.636 234, 469.738 234 C 468.384 234, 468.271 234.478, 469.077 236.790 M 147 242 C 144.593 244.407, 144.499 245.840, 146.557 248.777 L 148.113 251 204.485 251 C 254.399 251, 261.037 250.820, 262.429 249.429 C 264.536 247.321, 264.416 243.686, 262.171 241.655 C 260.516 240.157, 255.071 240, 204.671 240 C 150.333 240, 148.952 240.048, 147 242 M 146.496 272.365 C 144.702 275.104, 145.758 279.310, 148.505 280.364 C 150.672 281.195, 258.328 281.195, 260.495 280.364 C 263.242 279.310, 264.298 275.104, 262.504 272.365 L 260.954 270 204.500 270 L 148.046 270 146.496 272.365 M 73.200 316.200 C 71.493 317.907, 71.493 367.093, 73.200 368.800 C 74.070 369.670, 81.328 370, 99.578 370 C 121.778 370, 124.917 369.804, 126.128 368.346 C 128.130 365.934, 128.130 319.066, 126.128 316.654 C 124.917 315.196, 121.778 315, 99.578 315 C 81.328 315, 74.070 315.330, 73.200 316.200 M 147 324 C 144.593 326.407, 144.499 327.840, 146.557 330.777 L 148.113 333 204.534 333 L 260.954 333 262.504 330.635 C 264.298 327.896, 263.242 323.690, 260.495 322.636 C 259.583 322.286, 234.123 322, 203.918 322 C 150.333 322, 148.951 322.049, 147 324 M 146.557 354.223 C 144.499 357.160, 144.593 358.593, 147 361 C 148.951 362.951, 150.333 363, 203.918 363 C 234.123 363, 259.583 362.714, 260.495 362.364 C 263.242 361.310, 264.298 357.104, 262.504 354.365 L 260.954 352 204.534 352 L 148.113 352 146.557 354.223 M 73.200 398.200 C 71.493 399.907, 71.493 449.093, 73.200 450.800 C 74.070 451.670, 81.328 452, 99.578 452 C 121.778 452, 124.917 451.804, 126.128 450.346 C 128.130 447.934, 128.130 401.066, 126.128 398.654 C 124.917 397.196, 121.778 397, 99.578 397 C 81.328 397, 74.070 397.330, 73.200 398.200 M 148.185 404.684 C 145.728 405.667, 144.798 410.043, 146.496 412.635 L 148.046 415 204.500 415 L 260.954 415 262.504 412.635 C 264.298 409.896, 263.242 405.690, 260.495 404.636 C 258.518 403.878, 150.086 403.924, 148.185 404.684 M 146.557 436.223 C 144.499 439.160, 144.593 440.593, 147 443 C 148.952 444.952, 150.333 445, 204.500 445 C 258.667 445, 260.048 444.952, 262 443 C 264.407 440.593, 264.501 439.160, 262.443 436.223 L 260.887 434 204.500 434 L 148.113 434 146.557 436.223" stroke="none" fill="#e9e9ff" fill-rule="evenodd"/><path d="M 176.500 66.468 C 151.292 71.966, 130.964 91.509, 124.458 116.500 C 122.346 124.613, 122.338 140.771, 124.443 148.831 C 129.616 168.638, 142.445 184.552, 160.375 193.402 C 169.833 198.070, 179.132 200.104, 190.868 200.072 C 209.351 200.020, 224.231 193.788, 237.593 180.503 C 244.243 173.891, 246.513 170.766, 250.321 162.978 C 262.717 137.628, 259.490 110.519, 241.457 88.513 C 227.043 70.923, 199.277 61.500, 176.500 66.468 M 187.991 75.313 C 185.759 76.422, 185.469 77.251, 185.204 83.275 C 184.961 88.818, 184.609 90.004, 183.204 90.022 C 180.646 90.055, 172.818 93.827, 170.153 96.312 C 168.862 97.515, 166.961 100.146, 165.929 102.158 C 159.480 114.733, 165.539 129.333, 179.568 135.028 L 185 137.232 185 151.116 C 185 161.661, 184.695 165, 183.732 165 C 181.087 165, 175.218 159.970, 173.595 156.311 C 172.666 154.215, 171.543 151.825, 171.102 151 C 169.852 148.667, 165.646 148.628, 163.562 150.932 C 158.806 156.186, 168.905 170.815, 179.782 174.428 L 185 176.161 185 181.925 C 185 186.240, 185.460 188.106, 186.829 189.345 C 191.374 193.458, 195 190.166, 195 181.929 C 195 176.450, 195.171 175.999, 197.250 175.990 C 201.044 175.974, 209.340 171.515, 212.703 167.686 C 218.379 161.221, 219.462 152.682, 215.646 144.488 C 213.020 138.847, 208.584 135.033, 200.487 131.452 L 195 129.025 195 114.445 L 195 99.865 197.250 100.515 C 201.333 101.694, 204.465 104.571, 207.029 109.495 C 209.787 114.792, 210.842 115.508, 214.528 114.582 C 218.333 113.627, 218.671 109.892, 215.534 103.480 C 212.426 97.128, 207.974 93.359, 200.668 90.893 L 195.500 89.149 195 82.940 C 194.404 75.542, 192.249 73.197, 187.991 75.313 M 180.304 101.956 C 175.930 104.623, 173.727 108.322, 173.727 113 C 173.727 115.164, 174.488 118.096, 175.418 119.515 C 176.990 121.914, 182.541 125.988, 184.250 125.996 C 184.662 125.998, 185 120.150, 185 113 C 185 105.850, 184.662 100.002, 184.250 100.004 C 183.838 100.006, 182.062 100.884, 180.304 101.956 M 195 153.042 L 195 166.135 197.250 165.441 C 202.365 163.863, 205.238 161.674, 206.660 158.272 C 209.432 151.637, 206.453 145.727, 198.250 141.588 L 195 139.949 195 153.042 M 447 353.500 L 447 360 462 360 L 477 360 477 353.500 L 477 347 462 347 L 447 347 447 353.500" stroke="none" fill="#2dd62d" fill-rule="evenodd"/><path d="M 25 256 L 25 484 157.993 484 L 290.987 484 287.600 479.564 C 285.738 477.124, 283.378 472.961, 282.357 470.314 C 280.583 465.714, 280.500 459.832, 280.500 338 L 280.500 210.500 282.797 205.500 C 288.053 194.057, 294.775 187.781, 305.727 184.092 C 311.397 182.182, 314.201 182, 337.968 182 L 364 182 364 141 L 364 100 329.200 100 C 303.467 100, 294.087 99.687, 293.200 98.800 C 292.313 97.913, 292 88.533, 292 62.800 L 292 28 158.500 28 L 25 28 25 256 M 179.561 55.102 C 160.598 57.644, 141.730 68.145, 129.429 83 C 123.192 90.532, 115.481 106.665, 113.555 116.208 C 111.629 125.752, 111.579 140.350, 113.442 149.138 C 117.743 169.433, 131.413 188.817, 148.927 199.455 C 188.415 223.444, 240.255 208.546, 260.009 167.533 C 266.018 155.058, 268 146.296, 268 132.213 C 268 113.976, 262.705 98.495, 251.622 84.331 C 234.901 62.961, 206.591 51.478, 179.561 55.102 M 73.200 234.200 C 71.493 235.907, 71.493 285.093, 73.200 286.800 C 74.070 287.670, 81.328 288, 99.578 288 C 121.778 288, 124.917 287.804, 126.128 286.346 C 128.130 283.934, 128.130 237.066, 126.128 234.654 C 124.917 233.196, 121.778 233, 99.578 233 C 81.328 233, 74.070 233.330, 73.200 234.200 M 469.077 236.790 C 470.272 240.218, 469.871 311.742, 468.643 314.250 C 467.405 316.779, 471.003 316.578, 473.811 313.961 C 475.986 311.935, 476 311.691, 476 275.135 L 476 238.349 473.686 236.174 C 472.413 234.978, 470.636 234, 469.738 234 C 468.384 234, 468.271 234.478, 469.077 236.790 M 147 242 C 144.593 244.407, 144.499 245.840, 146.557 248.777 L 148.113 251 204.485 251 C 254.399 251, 261.037 250.820, 262.429 249.429 C 264.536 247.321, 264.416 243.686, 262.171 241.655 C 260.516 240.157, 255.071 240, 204.671 240 C 150.333 240, 148.952 240.048, 147 242 M 146.496 272.365 C 144.702 275.104, 145.758 279.310, 148.505 280.364 C 150.672 281.195, 258.328 281.195, 260.495 280.364 C 263.242 279.310, 264.298 275.104, 262.504 272.365 L 260.954 270 204.500 270 L 148.046 270 146.496 272.365 M 73.200 316.200 C 71.493 317.907, 71.493 367.093, 73.200 368.800 C 74.070 369.670, 81.328 370, 99.578 370 C 121.778 370, 124.917 369.804, 126.128 368.346 C 128.130 365.934, 128.130 319.066, 126.128 316.654 C 124.917 315.196, 121.778 315, 99.578 315 C 81.328 315, 74.070 315.330, 73.200 316.200 M 147 324 C 144.593 326.407, 144.499 327.840, 146.557 330.777 L 148.113 333 204.534 333 L 260.954 333 262.504 330.635 C 264.298 327.896, 263.242 323.690, 260.495 322.636 C 259.583 322.286, 234.123 322, 203.918 322 C 150.333 322, 148.951 322.049, 147 324 M 146.557 354.223 C 144.499 357.160, 144.593 358.593, 147 361 C 148.951 362.951, 150.333 363, 203.918 363 C 234.123 363, 259.583 362.714, 260.495 362.364 C 263.242 361.310, 264.298 357.104, 262.504 354.365 L 260.954 352 204.534 352 L 148.113 352 146.557 354.223 M 73.200 398.200 C 71.493 399.907, 71.493 449.093, 73.200 450.800 C 74.070 451.670, 81.328 452, 99.578 452 C 121.778 452, 124.917 451.804, 126.128 450.346 C 128.130 447.934, 128.130 401.066, 126.128 398.654 C 124.917 397.196, 121.778 397, 99.578 397 C 81.328 397, 74.070 397.330, 73.200 398.200 M 148.185 404.684 C 145.728 405.667, 144.798 410.043, 146.496 412.635 L 148.046 415 204.500 415 L 260.954 415 262.504 412.635 C 264.298 409.896, 263.242 405.690, 260.495 404.636 C 258.518 403.878, 150.086 403.924, 148.185 404.684 M 146.557 436.223 C 144.499 439.160, 144.593 440.593, 147 443 C 148.952 444.952, 150.333 445, 204.500 445 C 258.667 445, 260.048 444.952, 262 443 C 264.407 440.593, 264.501 439.160, 262.443 436.223 L 260.887 434 204.500 434 L 148.113 434 146.557 436.223" stroke="none" fill="#e9e9ff" fill-rule="evenodd"/><path d="M 8.223 18.557 L 6 20.113 6 256 L 6 491.887 8.223 493.443 C 10.218 494.841, 33.861 495, 240.086 495 C 391.083 495, 471.572 494.653, 475.114 493.986 C 486.898 491.768, 497.539 483.710, 502.782 473.033 L 505.500 467.500 505.765 339.827 C 506.029 212.497, 506.024 212.140, 503.942 206.575 C 499.804 195.516, 490.522 186.937, 479.068 183.588 C 474.431 182.232, 466.429 182, 424.318 182 L 375 182 375 137.765 L 375 93.529 336.735 55.265 L 298.471 17 154.458 17 C 25.733 17, 10.209 17.165, 8.223 18.557 M 16 256 L 16 485 154 485 C 229.900 485, 292 484.727, 292 484.394 C 292 484.061, 290.641 482.071, 288.979 479.973 C 287.317 477.875, 284.955 473.986, 283.729 471.330 L 281.500 466.500 281.500 338.479 L 281.500 210.458 284.750 203.856 C 288.603 196.030, 294.879 189.885, 302.825 186.160 C 308.447 183.525, 308.763 183.495, 336.500 183 L 364.500 182.500 364.761 141.250 L 365.022 100 330.511 100 C 297.333 100, 295.923 99.923, 294 98 C 292.077 96.077, 292 94.667, 292 61.500 L 292 27 154 27 L 16 27 16 256 M 302 62.500 L 302 90 329.743 90 L 357.486 90 330 62.500 C 314.883 47.375, 302.398 35, 302.257 35 C 302.116 35, 302 47.375, 302 62.500 M 178.803 56.079 C 147.866 60.616, 121.461 85.140, 114.613 115.697 C 112.332 125.877, 112.500 141.724, 114.992 151.468 C 122.215 179.709, 144.156 201.293, 172.540 208.080 C 185.116 211.088, 201.973 210.466, 213.500 206.571 C 228.449 201.519, 240.749 193.141, 249.997 181.712 C 275.673 149.980, 272.757 104.853, 243.226 76.910 C 234.072 68.248, 226.826 63.713, 216.044 59.898 C 203.626 55.504, 191.328 54.243, 178.803 56.079 M 173.916 66.522 C 154.751 71.176, 138.361 84.426, 129.412 102.500 C 119.575 122.367, 119.513 142.595, 129.227 163 C 132.535 169.950, 134.844 173.067, 141.886 180.091 C 151.480 189.658, 159.355 194.548, 171 198.168 C 182.066 201.609, 199.279 201.408, 210.500 197.709 C 239.413 188.176, 258.034 162.639, 257.985 132.590 C 257.966 121.004, 255.998 112.672, 250.760 102 C 247.431 95.217, 244.862 91.777, 238.044 84.972 C 228.242 75.188, 219.545 70.080, 207.391 66.972 C 198.288 64.644, 182.525 64.432, 173.916 66.522 M 186.557 77.223 C 185.647 78.521, 185 81.542, 185 84.488 L 185 89.531 179.980 91.314 C 158.426 98.969, 158.601 127.028, 180.250 134.771 L 185 136.469 185 151.210 L 185 165.950 182.250 164.914 C 178.288 163.420, 173.196 158.168, 172.459 154.815 C 171.587 150.842, 167.862 148.468, 164.948 150.028 C 163.068 151.034, 162.832 151.817, 163.261 155.622 C 164.162 163.613, 171.414 171.309, 180.750 174.180 L 185 175.487 185 181.243 C 185 185.667, 185.463 187.463, 187 189 C 188.100 190.100, 189.450 191, 190 191 C 190.550 191, 191.900 190.100, 193 189 C 194.509 187.491, 195 185.667, 195 181.571 L 195 176.142 200.313 174.597 C 210.424 171.658, 215.679 166.207, 217.039 157.244 C 217.410 154.797, 217.276 150.743, 216.741 148.234 C 215.457 142.215, 208.613 135.274, 200.745 132.013 L 195 129.632 195 114.303 L 195 98.973 198.673 100.508 C 203.747 102.628, 205.046 103.871, 207.151 108.618 C 209.664 114.286, 211.402 115.593, 214.530 114.168 C 216.431 113.302, 216.996 112.289, 216.984 109.771 C 216.947 102.459, 208.241 93.097, 199.412 90.874 L 195 89.763 195 83.953 C 195 77.765, 193.451 75, 189.985 75 C 188.956 75, 187.413 76, 186.557 77.223 M 179.299 101.960 C 170.466 107.345, 171.240 119.077, 180.799 124.722 L 185 127.203 185 113.602 C 185 98.707, 184.915 98.535, 179.299 101.960 M 195 153 C 195 167.274, 195.134 167.533, 200.961 164.520 C 207.530 161.123, 210.068 153.085, 206.358 147.424 C 204.903 145.203, 197.407 140, 195.662 140 C 195.298 140, 195 145.850, 195 153 M 311.863 192.705 C 310.412 192.929, 306.812 194.551, 303.863 196.312 C 297.388 200.176, 292.573 206.922, 291.049 214.262 C 290.291 217.917, 290.043 256.458, 290.231 341.502 C 290.500 463.338, 290.503 463.506, 292.614 468 C 295.125 473.344, 300.814 479.209, 305.764 481.558 C 307.724 482.488, 312.743 483.662, 316.917 484.167 C 321.108 484.674, 358.084 484.954, 399.503 484.792 L 474.500 484.500 479.500 482.196 C 485.553 479.407, 489.305 475.977, 492.839 470 L 495.500 465.500 495.765 339.721 L 496.030 213.941 493.908 209.007 C 492.716 206.237, 489.692 202.115, 487.016 199.612 C 478.546 191.689, 482.211 191.980, 393.068 192.150 C 349.856 192.232, 313.313 192.482, 311.863 192.705 M 311 224.722 C 307.305 226.110, 303.619 229.628, 301.905 233.401 C 300.196 237.165, 300.044 240.565, 300.044 275 C 300.044 316.956, 300.223 318.170, 307.133 323.099 L 310.500 325.500 392 325.768 C 451.310 325.962, 474.250 325.725, 476.255 324.894 C 480.080 323.310, 484.689 317.782, 485.940 313.277 C 487.336 308.251, 487.350 241.799, 485.956 236.781 C 485.388 234.736, 483.762 231.682, 482.342 229.995 C 477.020 223.670, 481.872 223.992, 393.300 224.079 C 348.860 224.122, 311.825 224.412, 311 224.722 M 75.233 234.037 L 72.966 234.948 73.233 260.724 L 73.500 286.500 99 286.768 C 122.087 287.010, 124.618 286.874, 125.750 285.327 C 126.665 284.075, 127 277.378, 127 260.309 C 127 238.333, 126.886 236.886, 125 235 C 123.113 233.113, 121.713 233.004, 100.250 233.063 C 87.737 233.098, 76.480 233.537, 75.233 234.037 M 311.923 235.923 L 309 238.846 309 275 L 309 311.154 311.923 314.077 L 314.846 317 393.469 317 L 472.091 317 474.545 314.545 L 477 312.091 477 275 L 477 237.909 474.545 235.455 L 472.091 233 393.469 233 L 314.846 233 311.923 235.923 M 147.571 242.571 C 145.729 244.414, 145.629 245.438, 147.035 248.066 C 148.040 249.943, 149.731 250, 204.335 250 C 263.601 250, 263 250.046, 263 245.500 C 263 240.956, 263.571 241, 204.871 241 C 155.542 241, 148.962 241.180, 147.571 242.571 M 82 260.500 L 82 278 99.500 278 L 117 278 117 260.500 L 117 243 99.500 243 L 82 243 82 260.500 M 146.820 273.496 C 145.880 275.558, 145.998 276.340, 147.496 277.996 C 149.269 279.955, 150.543 280, 204.500 280 C 258.457 280, 259.731 279.955, 261.504 277.996 C 263.002 276.340, 263.120 275.558, 262.180 273.496 L 261.043 271 204.500 271 L 147.957 271 146.820 273.496 M 73.451 317.268 C 73.183 317.965, 73.085 329.778, 73.232 343.518 L 73.500 368.500 99 368.768 C 122.087 369.010, 124.618 368.874, 125.750 367.327 C 127.345 365.145, 127.538 320.874, 125.965 317.934 C 124.983 316.100, 123.617 316, 99.433 316 C 79.766 316, 73.826 316.290, 73.451 317.268 M 147.496 325.004 C 145.998 326.660, 145.880 327.442, 146.820 329.504 L 147.957 332 204.500 332 L 261.043 332 262.180 329.504 C 263.120 327.442, 263.002 326.660, 261.504 325.004 C 259.731 323.045, 258.457 323, 204.500 323 C 150.543 323, 149.269 323.045, 147.496 325.004 M 82 342.500 L 82 360 99.500 360 L 117 360 117 342.500 L 117 325 99.500 325 L 82 325 82 342.500 M 305.476 338.354 C 301.170 340.290, 300 343.736, 300 354.491 C 300 362.980, 300.233 364.160, 302.411 366.694 L 304.823 369.500 323.048 369.815 C 335.655 370.032, 342.171 369.758, 344.184 368.924 C 348.642 367.077, 350 363.373, 350 353.065 C 350 344.499, 349.849 343.863, 347.084 340.766 L 344.168 337.500 326.334 337.247 C 312.998 337.058, 307.737 337.338, 305.476 338.354 M 375.374 337.689 C 374.205 337.919, 372.180 339.244, 370.874 340.634 C 368.686 342.963, 368.500 343.986, 368.500 353.663 L 368.500 364.164 371.833 367.142 L 375.165 370.120 394.171 369.810 L 413.177 369.500 415.589 366.694 C 417.790 364.133, 418 363.015, 418 353.878 C 418 348.373, 417.514 342.960, 416.920 341.850 C 414.817 337.922, 410.149 336.991, 393.282 337.136 C 384.602 337.211, 376.543 337.460, 375.374 337.689 M 442.329 338.458 C 437.766 340.443, 437 342.659, 437 353.878 C 437 363.015, 437.210 364.133, 439.411 366.694 L 441.823 369.500 460.829 369.810 L 479.835 370.120 483.167 367.140 L 486.500 364.160 486.500 353.732 C 486.500 342.219, 485.880 340.685, 480.282 338.345 C 475.760 336.455, 446.735 336.541, 442.329 338.458 M 309 353.475 L 309 360 325.048 360 L 341.095 360 340.798 353.750 L 340.500 347.500 324.750 347.225 L 309 346.949 309 353.475 M 378 353.500 L 378 360 393.500 360 L 409 360 409 353.500 L 409 347 393.500 347 L 378 347 378 353.500 M 446 353.500 L 446 360 461.500 360 L 477 360 477 353.500 L 477 347 461.500 347 L 446 347 446 353.500 M 147.035 354.934 C 145.629 357.562, 145.729 358.586, 147.571 360.429 C 148.962 361.819, 155.501 362, 204.416 362 C 258.457 362, 259.730 361.955, 261.504 359.996 C 263.002 358.340, 263.120 357.558, 262.180 355.496 L 261.043 353 204.557 353 C 149.734 353, 148.040 353.057, 147.035 354.934 M 305.357 379.992 C 301.124 381.700, 300 384.805, 300 394.788 C 300 404.083, 300.863 407.376, 303.913 409.718 C 305.033 410.578, 311.284 410.946, 325.161 410.968 L 344.822 411 347.411 407.923 C 349.775 405.114, 350 404.068, 350 395.874 C 350 385.851, 348.687 382.090, 344.528 380.195 C 341.456 378.795, 308.743 378.625, 305.357 379.992 M 372.786 380.553 C 369.101 382.553, 367.690 387.843, 368.149 397.945 C 368.493 405.511, 368.755 406.392, 371.318 408.597 C 374.061 410.957, 374.463 411, 393.604 411 L 413.095 411 415.548 408.354 C 417.825 405.897, 418 404.963, 418 395.277 C 418 385.081, 417.934 384.780, 415.077 381.923 L 412.154 379 393.827 379.040 C 379.641 379.071, 374.887 379.413, 372.786 380.553 M 439.923 381.923 C 437.059 384.787, 437 385.061, 437 395.469 C 437 405.413, 437.157 406.247, 439.455 408.545 C 441.889 410.980, 442.063 411, 461.020 411 C 472.798 411, 480.906 410.585, 482.150 409.920 C 485.235 408.269, 487 402.813, 487 394.933 C 487 386.752, 485.143 381.842, 481.405 380.139 C 479.831 379.422, 472.229 379, 460.876 379 L 442.846 379 439.923 381.923 M 309.692 388.642 C 309.311 389.022, 309 392.183, 309 395.667 L 309 402 325.046 402 L 341.091 402 340.796 395.250 L 340.500 388.500 325.442 388.225 C 317.160 388.074, 310.072 388.261, 309.692 388.642 M 378 395 L 378 402 393.500 402 L 409 402 409 395 L 409 388 393.500 388 L 378 388 378 395 M 446 395 L 446 402 461.500 402 L 477 402 477 395 L 477 388 461.500 388 L 446 388 446 395 M 73.607 399.582 C 73.273 400.452, 73 412.136, 73 425.547 C 73 448.630, 73.103 449.985, 74.934 450.965 C 76.107 451.593, 85.947 452, 99.934 452 C 121.667 452, 123.116 451.884, 125 450 C 126.884 448.116, 127 446.667, 127 424.934 C 127 410.947, 126.593 401.107, 125.965 399.934 C 124.983 398.100, 123.619 398, 99.572 398 C 77.371 398, 74.138 398.197, 73.607 399.582 M 147.496 407.004 C 145.998 408.660, 145.880 409.442, 146.820 411.504 L 147.957 414 204.500 414 L 261.043 414 262.180 411.504 C 263.120 409.442, 263.002 408.660, 261.504 407.004 C 259.731 405.045, 258.457 405, 204.500 405 C 150.543 405, 149.269 405.045, 147.496 407.004 M 82 424.500 L 82 442 99.500 442 L 117 442 117 424.500 L 117 407 99.500 407 L 82 407 82 424.500 M 302.589 424.077 C 300.181 426.938, 300 427.854, 300 437.154 C 300 446.873, 300.082 447.236, 302.923 450.077 L 305.846 453 324.867 453 C 343.528 453, 343.942 452.954, 346.694 450.588 C 349.389 448.272, 349.513 447.759, 349.841 437.602 L 350.181 427.027 347.168 424.014 L 344.154 421 324.666 421 L 305.178 421 302.589 424.077 M 372.750 422.080 C 369.459 423.997, 368 428.551, 368 436.903 C 368 452.173, 369.338 453, 394.027 453 L 412.154 453 415.077 450.077 C 417.934 447.219, 418 446.920, 418 436.713 C 418 426.766, 417.875 426.148, 415.364 423.636 L 412.727 421 393.614 421.030 C 382.500 421.048, 373.767 421.487, 372.750 422.080 M 439.455 423.455 C 437.147 425.762, 437 426.566, 437 436.866 L 437 447.822 440.077 450.411 C 443.137 452.986, 443.250 453, 461.126 453 C 481.263 453, 483.994 452.325, 485.892 446.881 C 487.450 442.412, 487.271 430.585, 485.585 426.548 C 484.806 424.685, 483.261 422.675, 482.150 422.080 C 480.906 421.415, 472.798 421, 461.020 421 C 442.063 421, 441.889 421.020, 439.455 423.455 M 309 437 L 309 444.051 324.750 443.775 L 340.500 443.500 340.500 437 L 340.500 430.500 324.750 430.225 L 309 429.949 309 437 M 378 437 L 378 444 393.500 444 L 409 444 409 437 L 409 430 393.500 430 L 378 430 378 437 M 446 437 L 446 444 461.500 444 L 477 444 477 437 L 477 430 461.500 430 L 446 430 446 437 M 147.571 436.571 C 146.707 437.436, 146 438.754, 146 439.500 C 146 440.246, 146.707 441.564, 147.571 442.429 C 148.962 443.819, 155.509 444, 204.500 444 C 253.491 444, 260.038 443.819, 261.429 442.429 C 263.423 440.434, 263.423 438.566, 261.429 436.571 C 260.038 435.181, 253.491 435, 204.500 435 C 155.509 435, 148.962 435.181, 147.571 436.571" stroke="none" fill="#000000" fill-rule="evenodd"/><path d="M 16 256 L 16 484 20.500 484 L 25 484 25 256 L 25 28 20.500 28 L 16 28 16 256 M 302 62.500 L 302 89 328.743 89 L 355.486 89 329 62.500 C 314.433 47.925, 302.398 36, 302.257 36 C 302.116 36, 302 47.925, 302 62.500 M 187.750 54.706 C 188.988 54.944, 191.012 54.944, 192.250 54.706 C 193.488 54.467, 192.475 54.272, 190 54.272 C 187.525 54.272, 186.512 54.467, 187.750 54.706 M 245 77.500 C 246.866 79.425, 248.617 81, 248.892 81 C 249.167 81, 247.866 79.425, 246 77.500 C 244.134 75.575, 242.383 74, 242.108 74 C 241.833 74, 243.134 75.575, 245 77.500 M 127.429 260.500 C 127.429 273.150, 127.573 278.187, 127.747 271.694 C 127.922 265.200, 127.921 254.850, 127.746 248.694 C 127.571 242.537, 127.428 247.850, 127.429 260.500 M 476.451 275 C 476.451 294.525, 476.585 302.513, 476.748 292.750 C 476.912 282.988, 476.912 267.013, 476.748 257.250 C 476.585 247.488, 476.451 255.475, 476.451 275 M 127.429 342.500 C 127.429 355.150, 127.573 360.187, 127.747 353.694 C 127.922 347.200, 127.921 336.850, 127.746 330.694 C 127.571 324.537, 127.428 329.850, 127.429 342.500 M 476.185 394.723 L 476 400.947 461.250 401.252 L 446.500 401.558 461.281 401.779 C 478.010 402.029, 477.329 402.377, 476.742 393.881 L 476.370 388.500 476.185 394.723 M 317.250 401.743 C 321.512 401.931, 328.488 401.931, 332.750 401.743 C 337.012 401.556, 333.525 401.402, 325 401.402 C 316.475 401.402, 312.988 401.556, 317.250 401.743 M 385.250 401.743 C 389.512 401.931, 396.488 401.931, 400.750 401.743 C 405.012 401.556, 401.525 401.402, 393 401.402 C 384.475 401.402, 380.988 401.556, 385.250 401.743 M 127.429 424.500 C 127.429 437.150, 127.573 442.187, 127.747 435.694 C 127.922 429.200, 127.921 418.850, 127.746 412.694 C 127.571 406.537, 127.428 411.850, 127.429 424.500" stroke="none" fill="#e9e8f7" fill-rule="evenodd"/><path d="M 84.750 27.750 C 122.837 27.895, 185.162 27.895, 223.250 27.750 C 261.337 27.605, 230.175 27.486, 154 27.486 C 77.825 27.486, 46.662 27.605, 84.750 27.750 M 244.500 78 C 246.648 80.200, 248.631 82, 248.906 82 C 249.181 82, 247.648 80.200, 245.500 78 C 243.352 75.800, 241.369 74, 241.094 74 C 240.819 74, 242.352 75.800, 244.500 78 M 141.462 85.250 L 136.500 90.500 141.750 85.538 C 146.628 80.926, 147.459 80, 146.712 80 C 146.554 80, 144.192 82.362, 141.462 85.250 M 169.437 97.250 L 166.500 100.500 169.750 97.563 C 171.537 95.948, 173 94.485, 173 94.313 C 173 93.540, 172.175 94.221, 169.437 97.250 M 364.457 141 C 364.457 163.825, 364.588 173.163, 364.749 161.750 C 364.909 150.338, 364.909 131.663, 364.749 120.250 C 364.588 108.838, 364.457 118.175, 364.457 141 M 163.252 112.500 C 163.263 114.700, 163.468 115.482, 163.707 114.238 C 163.946 112.994, 163.937 111.194, 163.687 110.238 C 163.437 109.282, 163.241 110.300, 163.252 112.500 M 122.232 127 C 122.232 128.925, 122.438 129.713, 122.689 128.750 C 122.941 127.787, 122.941 126.213, 122.689 125.250 C 122.438 124.287, 122.232 125.075, 122.232 127 M 112.286 132.500 C 112.294 135.250, 112.488 136.256, 112.718 134.736 C 112.947 133.216, 112.941 130.966, 112.704 129.736 C 112.467 128.506, 112.279 129.750, 112.286 132.500 M 122.252 138.500 C 122.263 140.700, 122.468 141.482, 122.707 140.238 C 122.946 138.994, 122.937 137.194, 122.687 136.238 C 122.437 135.282, 122.241 136.300, 122.252 138.500 M 237.946 180.750 L 234.500 184.500 238.250 181.054 C 241.740 177.846, 242.460 177, 241.696 177 C 241.529 177, 239.842 178.688, 237.946 180.750 M 353.824 192.750 C 376.003 192.900, 412.003 192.900, 433.824 192.750 C 455.646 192.599, 437.500 192.476, 393.500 192.477 C 349.500 192.477, 331.646 192.600, 353.824 192.750 M 183.750 200.706 C 184.988 200.944, 187.012 200.944, 188.250 200.706 C 189.488 200.467, 188.475 200.272, 186 200.272 C 183.525 200.272, 182.512 200.467, 183.750 200.706 M 192.762 200.707 C 194.006 200.946, 195.806 200.937, 196.762 200.687 C 197.718 200.437, 196.700 200.241, 194.500 200.252 C 192.300 200.263, 191.518 200.468, 192.762 200.707 M 290.484 338.500 C 290.484 405.600, 290.604 432.903, 290.750 399.173 C 290.896 365.443, 290.896 310.543, 290.750 277.173 C 290.604 243.803, 290.484 271.400, 290.484 338.500 M 353.824 223.750 C 376.003 223.900, 412.003 223.900, 433.824 223.750 C 455.646 223.599, 437.500 223.476, 393.500 223.477 C 349.500 223.477, 331.646 223.600, 353.824 223.750 M 72.431 260.500 C 72.432 273.700, 72.574 278.962, 72.747 272.193 C 72.921 265.424, 72.920 254.624, 72.746 248.193 C 72.572 241.762, 72.431 247.300, 72.431 260.500 M 299.452 275 C 299.452 295.075, 299.585 303.288, 299.749 293.250 C 299.912 283.213, 299.912 266.788, 299.749 256.750 C 299.585 246.713, 299.452 254.925, 299.452 275 M 177.321 270.749 C 192.622 270.905, 217.372 270.905, 232.321 270.749 C 247.269 270.594, 234.750 270.467, 204.500 270.467 C 174.250 270.467, 162.019 270.594, 177.321 270.749 M 87.807 287.747 C 94.576 287.921, 105.376 287.920, 111.807 287.746 C 118.238 287.572, 112.700 287.431, 99.500 287.431 C 86.300 287.432, 81.038 287.574, 87.807 287.747 M 87.807 315.747 C 94.576 315.921, 105.376 315.920, 111.807 315.746 C 118.238 315.572, 112.700 315.431, 99.500 315.431 C 86.300 315.432, 81.038 315.574, 87.807 315.747 M 72.431 342.500 C 72.432 355.700, 72.574 360.962, 72.747 354.193 C 72.921 347.424, 72.920 336.624, 72.746 330.193 C 72.572 323.762, 72.431 329.300, 72.431 342.500 M 353.824 326.750 C 376.003 326.900, 412.003 326.900, 433.824 326.750 C 455.646 326.599, 437.500 326.476, 393.500 326.477 C 349.500 326.477, 331.646 326.600, 353.824 326.750 M 177.179 332.749 C 191.853 332.905, 216.153 332.905, 231.179 332.749 C 246.206 332.594, 234.200 332.466, 204.500 332.466 C 174.800 332.466, 162.506 332.593, 177.179 332.749 M 436.365 353.500 C 436.368 359, 436.536 361.122, 436.738 358.216 C 436.941 355.311, 436.939 350.811, 436.734 348.216 C 436.528 345.622, 436.363 348, 436.365 353.500 M 299.355 353.500 C 299.352 358.450, 299.521 360.601, 299.731 358.280 C 299.940 355.959, 299.943 351.909, 299.736 349.280 C 299.530 346.651, 299.358 348.550, 299.355 353.500 M 418.355 353.500 C 418.352 358.450, 418.521 360.601, 418.731 358.280 C 418.940 355.959, 418.943 351.909, 418.736 349.280 C 418.530 346.651, 418.358 348.550, 418.355 353.500 M 309.328 353.500 C 309.333 357.350, 309.513 358.802, 309.730 356.728 C 309.946 354.653, 309.943 351.503, 309.722 349.728 C 309.501 347.952, 309.324 349.650, 309.328 353.500 M 408.328 353.500 C 408.333 357.350, 408.513 358.802, 408.730 356.728 C 408.946 354.653, 408.943 351.503, 408.722 349.728 C 408.501 347.952, 408.324 349.650, 408.328 353.500 M 446.328 353.500 C 446.333 357.350, 446.513 358.802, 446.730 356.728 C 446.946 354.653, 446.943 351.503, 446.722 349.728 C 446.501 347.952, 446.324 349.650, 446.328 353.500 M 340.320 354 C 340.320 357.575, 340.502 359.038, 340.723 357.250 C 340.945 355.462, 340.945 352.538, 340.723 350.750 C 340.502 348.962, 340.320 350.425, 340.320 354 M 87.807 369.747 C 94.576 369.921, 105.376 369.920, 111.807 369.746 C 118.238 369.572, 112.700 369.431, 99.500 369.431 C 86.300 369.432, 81.038 369.574, 87.807 369.747 M 418.360 395 C 418.360 400.225, 418.529 402.363, 418.735 399.750 C 418.941 397.137, 418.941 392.863, 418.735 390.250 C 418.529 387.637, 418.360 389.775, 418.360 395 M 436.360 395 C 436.360 400.225, 436.529 402.363, 436.735 399.750 C 436.941 397.137, 436.941 392.863, 436.735 390.250 C 436.529 387.637, 436.360 389.775, 436.360 395 M 299.355 395.500 C 299.352 400.450, 299.521 402.601, 299.731 400.280 C 299.940 397.959, 299.943 393.909, 299.736 391.280 C 299.530 388.651, 299.358 390.550, 299.355 395.500 M 324.954 388.735 L 339.910 389.052 340.273 395.276 L 340.637 401.500 340.568 395 L 340.500 388.500 325.249 388.460 L 309.998 388.419 324.954 388.735 M 385.797 388.745 C 390.361 388.930, 397.561 388.929, 401.797 388.742 C 406.034 388.555, 402.300 388.404, 393.500 388.405 C 384.700 388.406, 381.234 388.559, 385.797 388.745 M 453.797 388.745 C 458.361 388.930, 465.561 388.929, 469.797 388.742 C 474.034 388.555, 470.300 388.404, 461.500 388.405 C 452.700 388.406, 449.234 388.559, 453.797 388.745 M 87.807 397.747 C 94.576 397.921, 105.376 397.920, 111.807 397.746 C 118.238 397.572, 112.700 397.431, 99.500 397.431 C 86.300 397.432, 81.038 397.574, 87.807 397.747 M 72.431 424.500 C 72.432 437.700, 72.574 442.962, 72.747 436.193 C 72.921 429.424, 72.920 418.624, 72.746 412.193 C 72.572 405.762, 72.431 411.300, 72.431 424.500 M 315.750 411.745 C 320.837 411.927, 329.162 411.927, 334.250 411.745 C 339.337 411.564, 335.175 411.415, 325 411.415 C 314.825 411.415, 310.662 411.564, 315.750 411.745 M 384.302 411.746 C 389.693 411.926, 398.243 411.925, 403.302 411.744 C 408.361 411.563, 403.950 411.416, 393.500 411.417 C 383.050 411.418, 378.911 411.566, 384.302 411.746 M 452.302 411.746 C 457.693 411.926, 466.243 411.925, 471.302 411.744 C 476.361 411.563, 471.950 411.416, 461.500 411.417 C 451.050 411.418, 446.911 411.566, 452.302 411.746 M 177.321 414.749 C 192.622 414.905, 217.372 414.905, 232.321 414.749 C 247.269 414.594, 234.750 414.467, 204.500 414.467 C 174.250 414.467, 162.019 414.594, 177.321 414.749 M 315.750 420.745 C 320.837 420.927, 329.162 420.927, 334.250 420.745 C 339.337 420.564, 335.175 420.415, 325 420.415 C 314.825 420.415, 310.662 420.564, 315.750 420.745 M 383.750 420.745 C 388.837 420.927, 397.162 420.927, 402.250 420.745 C 407.337 420.564, 403.175 420.415, 393 420.415 C 382.825 420.415, 378.662 420.564, 383.750 420.745 M 452.750 420.745 C 457.837 420.927, 466.162 420.927, 471.250 420.745 C 476.337 420.564, 472.175 420.415, 462 420.415 C 451.825 420.415, 447.662 420.564, 452.750 420.745 M 418.360 437 C 418.360 442.225, 418.529 444.363, 418.735 441.750 C 418.941 439.137, 418.941 434.863, 418.735 432.250 C 418.529 429.637, 418.360 431.775, 418.360 437 M 436.360 437 C 436.360 442.225, 436.529 444.363, 436.735 441.750 C 436.941 439.137, 436.941 434.863, 436.735 432.250 C 436.529 429.637, 436.360 431.775, 436.360 437 M 299.349 437 C 299.349 441.675, 299.522 443.587, 299.732 441.250 C 299.943 438.913, 299.943 435.087, 299.732 432.750 C 299.522 430.413, 299.349 432.325, 299.349 437 M 340.320 437 C 340.320 440.575, 340.502 442.038, 340.723 440.250 C 340.945 438.462, 340.945 435.538, 340.723 433.750 C 340.502 431.962, 340.320 433.425, 340.320 437 M 453.797 443.745 C 458.361 443.930, 465.561 443.929, 469.797 443.742 C 474.034 443.555, 470.300 443.404, 461.500 443.405 C 452.700 443.406, 449.234 443.559, 453.797 443.745 M 316.750 453.744 C 321.288 453.929, 328.712 453.929, 333.250 453.744 C 337.788 453.559, 334.075 453.407, 325 453.407 C 315.925 453.407, 312.212 453.559, 316.750 453.744 M 385.299 453.745 C 390.139 453.929, 397.789 453.928, 402.299 453.743 C 406.810 453.558, 402.850 453.408, 393.500 453.409 C 384.150 453.410, 380.460 453.562, 385.299 453.745 M 453.299 453.745 C 458.139 453.929, 465.789 453.928, 470.299 453.743 C 474.810 453.558, 470.850 453.408, 461.500 453.409 C 452.150 453.410, 448.460 453.562, 453.299 453.745 M 84.750 484.750 C 122.837 484.895, 185.162 484.895, 223.250 484.750 C 261.337 484.605, 230.175 484.486, 154 484.486 C 77.825 484.486, 46.662 484.605, 84.750 484.750 M 357.324 484.750 C 378.127 484.901, 411.877 484.901, 432.324 484.750 C 452.771 484.598, 435.750 484.475, 394.500 484.475 C 353.250 484.475, 336.521 484.599, 357.324 484.750" stroke="none" fill="#223c36" fill-rule="evenodd"/></svg>